<svg width="32" height="32" viewBox="0 0 32 32" fill="none" xmlns="http://www.w3.org/2000/svg">
<path d="M19.5393 9.22405C20.5414 9.53946 22.0281 10.5833 22.7424 11.2707C22.979 11.4983 23.4193 11.4845 23.7042 11.2707L26.483 8.52753C26.6967 8.31375 26.6967 7.81505 26.5541 7.5657C25.5342 6.57774 23.6236 5.25805 22.1617 4.68567L19.5393 9.22405V9.22405Z" fill="url(#paint0_linear_6074_206)"/>
<path d="M10.7173 18.6522C10.5899 18.0486 10.522 17.404 10.522 16.7216C10.522 12.8511 12.6072 9.8705 16.163 9.22735L19.1853 3.9968C18.6787 3.93147 18.1651 3.89664 17.6471 3.89664C10.2726 3.89664 5 9.20483 5 16.7216C5 19.7904 5.86854 22.4222 7.34467 24.4888L10.7173 18.6522V18.6522Z" fill="url(#paint1_linear_6074_206)"/>
<path d="M17.6486 24.345C15.8157 24.345 14.1385 23.7059 12.8725 22.544L10.1453 27.2635C12.2446 28.7386 14.8397 29.5465 17.6486 29.5465C21.0688 29.5465 24.3107 28.05 26.5548 25.9126C26.733 25.7344 26.6619 25.2357 26.5548 24.9864L23.8472 22.2787C23.4911 21.9938 22.9924 21.9582 22.7431 22.172C21.3893 23.5258 19.6079 24.345 17.6486 24.345V24.345Z" fill="url(#paint2_linear_6074_206)"/>
<path d="M10.6113 19.9265C10.6853 19.8049 10.7362 19.6858 10.7634 19.569C10.791 19.4521 10.7989 19.2713 10.7881 19.026L10.636 15.6015C10.6284 15.432 10.6044 15.297 10.5638 15.1968C10.5231 15.097 10.4778 15.0498 10.4273 15.0553C10.37 15.0615 10.3144 15.1148 10.2611 15.2153L5.99596 22.649C5.92228 22.7706 5.87149 22.89 5.84391 23.0069C5.81668 23.1234 5.80831 23.3045 5.8192 23.5495L5.97165 26.9743C5.97891 27.1438 6.00324 27.2789 6.04353 27.379C6.08418 27.4785 6.12991 27.526 6.17999 27.5206C6.2377 27.5144 6.29323 27.461 6.34658 27.3605L10.6113 19.9265V19.9265Z" fill="url(#paint3_linear_6074_206)"/>
<path d="M18.9486 4.87163C19.0223 4.75004 19.0735 4.63101 19.1007 4.51413C19.1279 4.39726 19.1363 4.21651 19.1254 3.97116L18.973 0.546661C18.9657 0.377162 18.9414 0.242164 18.9011 0.141989C18.8604 0.0421762 18.8151 -0.00502202 18.7646 0.000422294C18.7069 0.00659252 18.6514 0.0599525 18.598 0.160491L14.3333 7.59453C14.2593 7.71576 14.2084 7.83516 14.1812 7.95203C14.1536 8.0689 14.1457 8.24966 14.1566 8.49465L14.3086 11.9195C14.3162 12.089 14.3402 12.224 14.3808 12.3242C14.4215 12.4236 14.4669 12.4712 14.5173 12.4657C14.5747 12.4596 14.6302 12.4062 14.6835 12.3057L18.9486 4.87163V4.87163Z" fill="url(#paint4_linear_6074_206)"/>
<path d="M13.9971 24.4055C14.0708 24.2839 14.1219 24.1648 14.1492 24.048C14.1764 23.9311 14.1848 23.7504 14.1739 23.505L14.0218 20.0805C14.0142 19.9107 13.9898 19.776 13.9495 19.6758C13.9089 19.576 13.8635 19.5288 13.8131 19.5343C13.7554 19.5404 13.6998 19.5938 13.6465 19.6943L9.38178 27.128C9.30773 27.2496 9.2569 27.369 9.22968 27.4859C9.2021 27.6024 9.19413 27.7835 9.20501 28.0285L9.35711 31.4533C9.36473 31.6228 9.38866 31.7578 9.42931 31.858C9.46996 31.9575 9.51536 32.005 9.56581 31.9996C9.62315 31.993 9.67865 31.9397 9.73201 31.8392L13.9971 24.4055V24.4055Z" fill="url(#paint5_linear_6074_206)"/>
<defs>
<linearGradient id="paint0_linear_6074_206" x1="18.2238" y1="3.42733" x2="21.4057" y2="10.3094" gradientUnits="userSpaceOnUse">
<stop stop-color="#E9ECF6"/>
<stop offset="1" stop-color="white"/>
</linearGradient>
<linearGradient id="paint1_linear_6074_206" x1="2.37697" y1="0.0581798" x2="14.39" y2="17.042" gradientUnits="userSpaceOnUse">
<stop stop-color="#E9ECF6"/>
<stop offset="1" stop-color="white"/>
</linearGradient>
<linearGradient id="paint2_linear_6074_206" x1="7.09087" y1="20.6343" x2="9.05421" y2="29.4946" gradientUnits="userSpaceOnUse">
<stop stop-color="#E9ECF6"/>
<stop offset="1" stop-color="white"/>
</linearGradient>
<linearGradient id="paint3_linear_6074_206" x1="4.89405" y1="12.7311" x2="12.4567" y2="18.9292" gradientUnits="userSpaceOnUse">
<stop stop-color="#E9ECF6"/>
<stop offset="1" stop-color="white"/>
</linearGradient>
<linearGradient id="paint4_linear_6074_206" x1="13.2313" y1="-2.32374" x2="20.794" y2="3.87427" gradientUnits="userSpaceOnUse">
<stop stop-color="#E9ECF6"/>
<stop offset="1" stop-color="white"/>
</linearGradient>
<linearGradient id="paint5_linear_6074_206" x1="8.2798" y1="17.2101" x2="15.8424" y2="23.4082" gradientUnits="userSpaceOnUse">
<stop stop-color="#E9ECF6"/>
<stop offset="1" stop-color="white"/>
</linearGradient>
</defs>
</svg>
